<?xml version="1.0" encoding="utf-8"?>
<!-- Generator: Adobe Illustrator 27.8.1, SVG Export Plug-In . SVG Version: 6.00 Build 0)  -->
<svg version="1.1" id="Camada_1" xmlns="http://www.w3.org/2000/svg" xmlns:xlink="http://www.w3.org/1999/xlink" x="0px" y="0px"
	 viewBox="0 0 377.4 148.6" style="enable-background:new 0 0 377.4 148.6;" xml:space="preserve">
<style type="text/css">
	.st0{fill-rule:evenodd;clip-rule:evenodd;fill:#0D0D0D;}
	.st1{fill:#0D0D0D;}
</style>
<g>
	<path class="st0" d="M260.7,48.9l0.4-0.7l-0.8-0.5c3.1-6.4,3.6-10.7,7.7-17.9c3.3,0.9,6.9,2.5,17.4,9c-6.8,9.4-8.6,16.8-13.1,24
		c7.7,3.9,15,8.3,21.9,13.2c-17-7.1-35.1-12.4-54-15.7c-63.1-10.9-124.8,3-175.1,34.6c7.9-7.8,16.6-14.8,25.8-21
		c-6.2-7-12.3-19.6-20-29.7C81,36,87.4,33,87.5,33.8c4.8,6.7,10.5,21.8,16.8,31.8c2.4-1.3,4.8-2.5,7.2-3.8
		c-7.1-14.9-8-28.5-17.9-47.2c2.6-1.6,10.6-3.5,23.2-5.9l2.3,9l-5.3,1.4l-0.8,0.2l0.2,0.8l9.5,36.8c0.4-0.2,0.8-0.3,1.3-0.5
		c-3.8-14.4-4.8-23.7-9-35.9c7-2.5,15-4.6,24-6.2c-0.1,5.7-0.2,10.6-0.3,16.2l-1.4,0.1l0,0.8l0.7,19.9c0.7-0.2,1.4-0.4,2.2-0.7
		l-1.3-18.6c0.3-0.3,2.8-1.3,19-0.7l0,0l0.7,0c-0.4,5.2-0.8,10.5-1.5,15.2c0.8-0.2,1.6-0.3,2.4-0.4l0.7-15.5l0-0.8l-1.5-0.2
		c0.6-6.1,0.6-12.8,0.2-20.1c12.1-0.1,19,0.2,20,1l-0.1,3.9l-2.9,0.1l-0.8,0l0,0.8l1,28.6c0.5,0,1.1-0.1,1.6-0.1l-0.9-27.7l2.8-0.1
		l0.7,0c7.5-0.9,12.3-0.9,16.1-0.6c-1.9,10.5-1.2,17.5-1.8,28c3.9,0.1,7.9,0.3,11.9,0.7c2.3-14.7,4.8-24.1,5.2-41
		c1.4-0.4,13.1,2.1,22.5,5.3l-10.6,38c0.6,0.1,1.2,0.2,1.8,0.3c2.8-9.8,3-16.6,7.4-27.5c3,0.1,8.8,1.3,16,3.1L242,38.2l-1.1-0.7
		l-0.4,0.7l-4.5,11c0.7,0.2,1.3,0.3,2,0.5l3.6-10c0.3,0.1,0.8,0.5,0.8,0.4l0.2-0.8c9.8,4.5,15.5,7.5,16.1,8.6l-0.4,0.7l0.6,0.3
		l-3.5,6.5c0.5,0.2,1,0.4,1.5,0.6L260.7,48.9z"/>
	<path class="st0" d="M96.8,123.8l-1.1,10.5l-17.9,1l0.5-5c-3.5,4.1-7.7,6.3-12.3,6.6c-3.6,0.2-6.2-0.8-7.8-2.9s-2.2-5.1-1.8-9
		l1.4-13.6l-2.9,0.2l1.1-10.5l17.9-1l-2.1,21.1c-0.1,1.4,0.1,2.4,0.6,3.1c0.6,0.6,1.5,0.9,2.7,0.8s2.2-0.5,2.9-1.2
		c0.7-0.7,1.1-1.8,1.3-3.2l1.1-10.5l-3.5,0.2l1.1-10.5l18.5-1.1l-2.6,25.2L96.8,123.8z M50.5,141.9c-9.2,0.5-16.6,0.7-22.1,0.4
		c-5.5-0.2-10.1-1.1-14-2.7c-3.8-1.6-6.9-4.1-9.2-7.6c-2.5-4-3.4-9.7-2.6-17.2c0.9-8.7,3.7-15.3,8.5-19.8c4.8-4.5,11.1-7,19-7.5
		c7.8-0.4,13.7,1.1,17.8,4.6c4,3.5,5.6,9.1,4.9,16.6c-0.3,3.2-1.2,6.3-2.5,9.2c-1.3,2.9-3.5,5.6-6.3,8.2l0.3,0.6l7.8-0.4L50.5,141.9
		z M26.1,127.9c3-0.2,4.6-1.8,4.9-5l2-19.4c0.3-3.2-1-4.7-4-4.5c-3,0.2-4.6,1.8-4.9,5l-2,19.4C21.8,126.6,23.1,128.1,26.1,127.9
		L26.1,127.9z M357.6,118.9c-5.5,0.3-10.7-0.2-15.6-1.6l1-9.5l10.6-0.6l-0.1,0.6c-0.2,2.1,1,3,3.7,2.8c2.4-0.1,3.6-1,3.8-2.6
		c0.1-0.9-0.2-1.5-0.8-1.9c-0.6-0.4-1.8-0.7-3.5-0.9l-3.2-0.4c-6.7-0.8-9.7-4.4-9.1-10.8c0.4-3.7,2.1-6.7,5.2-8.9
		c3.1-2.2,7-3.5,11.9-3.8c5.4-0.3,9.9,0.3,13.5,1.9l-0.9,8.9l-9.9,0.6l0.1-0.6c0.1-0.9-0.1-1.5-0.7-1.9c-0.5-0.4-1.4-0.6-2.5-0.5
		c-2.2,0.1-3.3,0.9-3.5,2.2c-0.1,0.7,0.2,1.3,0.7,1.6c0.6,0.3,1.6,0.7,3.2,0.9l3.6,0.5c3.8,0.5,6.4,1.7,7.9,3.6
		c1.5,1.9,2,4.3,1.7,7.4c-0.4,3.9-2.1,6.9-5,9.2C366.8,117.3,362.7,118.6,357.6,118.9L357.6,118.9z M329.3,86.1l0.1-1l8.1-10.2
		l14-0.8l-0.2,1.7l-11.5,9.6L329.3,86.1z M307,122.9c-6.2,0.4-10.9-1-14-3.9c-3.2-3-4.4-7.5-3.8-13.7s2.8-10.9,6.6-14.3
		c3.8-3.4,8.8-5.3,15-5.6c6.3-0.4,11,1,14.1,4s4.4,7.6,3.8,13.6c-0.6,6.1-2.8,10.9-6.6,14.3C318.2,120.7,313.2,122.6,307,122.9
		L307,122.9z M308.2,111.5c1.3-0.1,2.2-0.5,2.9-1.2c0.7-0.7,1.1-1.8,1.3-3.2l0.6-6.4c0.1-1.4-0.1-2.4-0.6-3.1s-1.5-0.9-2.7-0.8
		c-1.3,0.1-2.2,0.5-2.9,1.2c-0.7,0.7-1.1,1.8-1.3,3.2l-0.6,6.4c-0.1,1.4,0.1,2.4,0.6,3.1C306,111.3,306.9,111.6,308.2,111.5
		L308.2,111.5z M285.3,86.9c0.9-0.1,1.7,0,2.5,0.1c0.8,0.1,1.4,0.3,1.9,0.5l-1.2,12.3c-1.7-0.6-3.6-0.9-5.6-0.8
		c-2.7,0.2-4.9,1-6.5,2.5s-2.6,3.6-2.9,6.4l-0.6,5.6l5.9-0.3l-1.1,10.5l-23.8,1.4l1.1-10.5l2.9-0.2l1.5-14.6l-2.9,0.2l1.1-10.5
		l17.9-1l-0.5,4.7c1.4-1.9,2.9-3.3,4.6-4.4C281.1,87.6,283.1,87,285.3,86.9L285.3,86.9z M238.7,87l1.1-10.7l13.3-0.8L252,86.2
		L238.7,87z M231.6,126.4l1.1-10.5l2.9-0.2l1.5-14.7l-2.9,0.2l1.1-10.5l17.9-1l-2.6,25.2l2.9-0.2l-1.1,10.5L231.6,126.4z
		 M212.6,128.4c-6.2,0.4-10.8-0.9-14-3.9c-3.2-3-4.4-7.5-3.8-13.7s2.8-10.9,6.6-14.3c3.8-3.4,8.8-5.3,15-5.6
		c6.1-0.4,10.4,1,12.8,3.9c2.4,3,3.4,6.8,2.9,11.5l-0.5,4.6l-21.1,1.2l0,0.4c-0.2,1.6,0.2,2.7,1.1,3.4s2.4,1,4.6,0.8
		c2.6-0.2,5.2-0.5,7.6-1c2.4-0.5,4.6-1.1,6.4-1.8l-1,10.3c-1.6,0.9-3.9,1.8-6.9,2.6C219.3,127.7,216,128.2,212.6,128.4L212.6,128.4z
		 M218.8,104.7l0.1-0.8c0.1-1.4-0.1-2.5-0.6-3.1c-0.6-0.6-1.5-0.9-2.7-0.8c-1.3,0.1-2.2,0.5-2.9,1.2c-0.7,0.7-1.1,1.8-1.3,3.2
		l-0.1,0.8L218.8,104.7z M180.3,130.3c-4.6,0.3-8-0.6-10.1-2.7c-2.1-2.1-2.9-5.7-2.4-10.9L169,105l-2.9,0.2l1.1-10.5
		c1.7-0.1,2.9-0.6,3.9-1.5c0.9-0.9,1.4-2.1,1.6-3.5l0.3-2.9l13.8-0.8l-0.8,7.6l8.8-0.5l-1.1,10.5l-8.8,0.5l-1.1,10.5
		c-0.1,1.4,0.1,2.4,0.6,3.1s1.5,0.9,2.7,0.8c1.7-0.1,3.5-0.4,5.5-0.9l-1,10.1c-1.3,0.5-2.9,1.1-5.1,1.6
		C184.5,129.8,182.4,130.2,180.3,130.3L180.3,130.3z M163.7,119.9l-1.1,10.5l-20.6,1.2l1.1-10.5l2.7-0.2l1.1-10.5
		c0.1-1.4-0.1-2.4-0.6-3.1c-0.5-0.6-1.4-0.9-2.6-0.8c-2.6,0.2-4.1,1.6-4.3,4.3l-1.1,10.5l2.7-0.2l-1.1,10.5l-20.6,1.2l1.1-10.5
		l2.9-0.2l1.5-14.6l-2.9,0.2l1.1-10.5l17.9-1l-0.5,5c3.5-4.1,7.6-6.3,12.4-6.6c3.6-0.2,6.2,0.8,7.8,2.9c1.6,2.1,2.2,5.1,1.8,9
		l-1.4,13.6L163.7,119.9z M104.2,94.8l1.1-10.7l13.3-0.8L117.5,94L104.2,94.8z M97.1,134.2l1.1-10.5l2.9-0.2l1.5-14.6l-2.9,0.2
		l1.1-10.5l17.9-1l-2.6,25.2l2.9-0.2l-1.1,10.5L97.1,134.2z"/>
	<path class="st0" d="M270.1,145.6c-1.3,0.1-2.2-0.3-2.7-1.2c-0.5-0.9-0.7-2.2-0.6-3.9c0.2-1.7,0.6-3.1,1.4-4c0.7-1,1.8-1.5,3-1.6
		c0.6,0,1.2,0.1,1.6,0.4c0.5,0.3,0.8,0.6,1.1,1l0.2-2.3l-1.1,0.1l0.3-3l5.4-0.3l-1.1,11.3l0.8-0.1l-0.3,3l-5.1,0.3l0.1-1.2
		c-0.4,0.4-0.8,0.8-1.3,1.1C271.3,145.4,270.8,145.5,270.1,145.6L270.1,145.6z M272.3,142.2c0.4,0,0.6-0.1,0.9-0.3
		c0.2-0.2,0.3-0.5,0.4-0.9l0.2-1.8c0-0.4,0-0.7-0.2-0.9c-0.2-0.2-0.4-0.3-0.8-0.2c-0.4,0-0.6,0.1-0.8,0.3c-0.2,0.2-0.3,0.5-0.4,0.9
		l-0.2,1.8c0,0.4,0,0.7,0.2,0.9C271.6,142.1,271.9,142.2,272.3,142.2L272.3,142.2z M284.4,144.8c-1.8,0.1-3.1-0.3-4-1.1
		s-1.3-2.2-1.1-3.9s0.8-3.1,1.9-4.1c1.1-1,2.5-1.5,4.3-1.6c1.8-0.1,3,0.3,3.7,1.1c0.7,0.9,1,2,0.8,3.3l-0.1,1.3l-6.1,0.4l0,0.1
		c0,0.4,0.1,0.8,0.3,1c0.3,0.2,0.7,0.3,1.3,0.2c0.8,0,1.5-0.1,2.2-0.3c0.7-0.1,1.3-0.3,1.8-0.5l-0.3,2.9c-0.5,0.3-1.1,0.5-2,0.8
		C286.3,144.6,285.4,144.8,284.4,144.8L284.4,144.8z M286.1,138l0-0.2c0-0.4,0-0.7-0.2-0.9s-0.4-0.2-0.8-0.2c-0.4,0-0.6,0.1-0.8,0.3
		c-0.2,0.2-0.3,0.5-0.4,0.9l0,0.2L286.1,138z M294.5,144.3c-1.6,0.1-3.1-0.1-4.5-0.5l0.3-2.7l3-0.2l0,0.2c-0.1,0.6,0.3,0.9,1,0.8
		c0.7,0,1-0.3,1.1-0.7c0-0.2,0-0.4-0.2-0.5c-0.2-0.1-0.5-0.2-1-0.3l-0.9-0.1c-1.9-0.2-2.8-1.3-2.6-3.1c0.1-1.1,0.6-1.9,1.5-2.6
		c0.9-0.6,2-1,3.4-1.1c1.6-0.1,2.9,0.1,3.9,0.6l-0.3,2.6l-2.9,0.2l0-0.2c0-0.2,0-0.4-0.2-0.6c-0.2-0.1-0.4-0.2-0.7-0.1
		c-0.6,0-1,0.2-1,0.6c0,0.2,0,0.4,0.2,0.5s0.5,0.2,0.9,0.3l1,0.1c1.1,0.1,1.8,0.5,2.3,1c0.4,0.5,0.6,1.2,0.5,2.1
		c-0.1,1.1-0.6,2-1.5,2.6C297.1,143.8,296,144.2,294.5,144.3L294.5,144.3z M303.4,143.8c-1.3,0.1-2.2-0.3-2.7-1.2
		c-0.5-0.9-0.7-2.2-0.6-3.9s0.6-3.1,1.4-4c0.7-1,1.7-1.5,3-1.6c0.6,0,1.2,0.1,1.6,0.4c0.5,0.3,0.8,0.6,1.1,1l0.2-2.3l-1.1,0.1l0.3-3
		l5.4-0.3l-1.1,11.3l0.8-0.1l-0.3,3l-5.1,0.3l0.1-1.2c-0.4,0.4-0.8,0.8-1.3,1.1C304.7,143.6,304.1,143.8,303.4,143.8L303.4,143.8z
		 M305.6,140.4c0.4,0,0.6-0.1,0.9-0.3c0.2-0.2,0.3-0.5,0.4-0.9l0.2-1.8c0-0.4,0-0.7-0.2-0.9c-0.2-0.2-0.4-0.3-0.8-0.2
		c-0.4,0-0.6,0.1-0.9,0.3c-0.2,0.2-0.3,0.5-0.4,0.9l-0.2,1.8c0,0.4,0,0.7,0.2,0.9S305.2,140.4,305.6,140.4L305.6,140.4z M317.7,143
		c-1.8,0.1-3.1-0.3-4-1.1s-1.3-2.2-1.1-3.9c0.2-1.8,0.8-3.1,1.9-4.1c1.1-1,2.5-1.5,4.3-1.6c1.8-0.1,3,0.3,3.7,1.1
		c0.7,0.9,1,2,0.8,3.3l-0.1,1.3l-6.1,0.4l0,0.1c0,0.5,0.1,0.8,0.3,1s0.7,0.3,1.3,0.2c0.8,0,1.5-0.1,2.2-0.3c0.7-0.1,1.3-0.3,1.8-0.5
		l-0.3,2.9c-0.5,0.3-1.1,0.5-2,0.8C319.6,142.8,318.7,143,317.7,143L317.7,143z M319.5,136.2l0-0.2c0-0.4,0-0.7-0.2-0.9
		s-0.4-0.2-0.8-0.2c-0.4,0-0.6,0.1-0.8,0.3c-0.2,0.2-0.3,0.5-0.4,0.9l0,0.2L319.5,136.2z M326.4,142.2l0.3-3l1.8-0.1l0.8-8.3
		l-2.4,0.1l0.2-2.1l4.2-1.2l3.1-0.2l-1.1,11.3l1.6-0.1l-0.3,3L326.4,142.2z M342,126.7c2.2-0.1,3.8,0.4,4.8,1.5
		c1,1.1,1.3,2.9,1.1,5.3c-0.3,2.6-1.1,4.6-2.5,5.9c-1.4,1.3-3.2,2-5.4,2.2c-0.9,0.1-1.8,0-2.5-0.1c-0.8-0.1-1.4-0.3-1.8-0.5l0.4-3.7
		c0.5,0.2,1,0.3,1.6,0.4c0.6,0.1,1.2,0.1,1.9,0.1c1.8-0.1,2.8-0.8,2.9-2.1l0-0.2c-0.8,0.4-1.7,0.6-2.6,0.6c-1.5,0.1-2.5-0.2-3.3-1
		s-1-1.8-0.9-3.1c0.2-1.6,0.8-2.9,1.9-3.8C338.6,127.3,340.1,126.8,342,126.7L342,126.7z M340.2,131.7c0,0.5,0,0.9,0.2,1.1
		s0.5,0.4,1,0.4c0.4,0,0.8-0.1,1.2-0.3l0.1-1.5c0-0.5,0-0.9-0.2-1.1c-0.2-0.2-0.5-0.3-0.9-0.3s-0.8,0.2-1,0.4
		C340.5,130.7,340.3,131.1,340.2,131.7L340.2,131.7z M355,126c2.2-0.1,3.8,0.4,4.8,1.5c1,1.1,1.3,2.9,1.1,5.3
		c-0.3,2.6-1.1,4.6-2.5,5.9c-1.4,1.3-3.2,2-5.4,2.2c-0.9,0.1-1.8,0-2.5-0.1c-0.8-0.1-1.4-0.3-1.8-0.5l0.4-3.7c0.5,0.2,1,0.3,1.6,0.4
		c0.6,0.1,1.2,0.1,1.9,0.1c1.8-0.1,2.8-0.8,2.9-2.1l0-0.2c-0.8,0.4-1.7,0.6-2.6,0.6c-1.5,0.1-2.5-0.2-3.3-1s-1-1.8-0.9-3.1
		c0.2-1.6,0.8-2.9,1.9-3.8C351.7,126.7,353.2,126.2,355,126L355,126z M353.3,131c0,0.5,0,0.9,0.2,1.1c0.2,0.3,0.5,0.4,1,0.4
		c0.4,0,0.8-0.1,1.2-0.3l0.1-1.5c0-0.5,0-0.9-0.2-1.1c-0.2-0.2-0.5-0.3-0.9-0.3c-0.4,0-0.8,0.2-1,0.4
		C353.5,130,353.3,130.4,353.3,131L353.3,131z M367,139.9l0.2-2.3l-6.1,0.4l0.3-3l7.4-9.4l4.6-0.3l-0.9,9.2l1.3-0.1l-0.3,2.8
		l-1.3,0.1l-0.2,2.3L367,139.9z M364.8,135l2.6-0.1l0.4-3.6L364.8,135z"/>
	<g>
		<path class="st1" d="M301.4,63c-1.2,0-2.4-0.3-3.4-0.9c-1-0.6-1.9-1.4-2.5-2.4s-0.9-2.2-0.9-3.4s0.3-2.4,0.9-3.4s1.4-1.8,2.5-2.4
			c1-0.6,2.2-0.9,3.4-0.9s2.4,0.3,3.4,0.9c1,0.6,1.8,1.4,2.4,2.4c0.6,1,0.9,2.2,0.9,3.4s-0.3,2.4-0.9,3.4s-1.4,1.8-2.4,2.4
			C303.8,62.7,302.6,63,301.4,63z M301.4,61.2c0.9,0,1.8-0.2,2.5-0.7s1.4-1,1.8-1.8c0.5-0.8,0.7-1.6,0.7-2.5s-0.2-1.8-0.7-2.5
			s-1.1-1.4-1.8-1.8s-1.6-0.7-2.5-0.7s-1.8,0.2-2.5,0.7c-0.8,0.5-1.4,1.1-1.8,1.8s-0.7,1.6-0.7,2.5s0.2,1.8,0.7,2.5
			c0.5,0.8,1,1.4,1.8,1.8C299.6,61,300.5,61.2,301.4,61.2z M299.5,59.9c-0.2,0-0.4-0.1-0.5-0.2c-0.1-0.2-0.2-0.3-0.2-0.6v-5.7
			c0-0.2,0.1-0.3,0.2-0.4c0.1-0.1,0.3-0.2,0.5-0.2h2.5c0.6,0,1,0.2,1.5,0.6s0.6,1,0.6,1.6c0,0.3-0.1,0.7-0.4,1
			c-0.2,0.3-0.5,0.6-0.8,0.7v-0.1c0.3,0.2,0.5,0.4,0.6,0.6s0.2,0.5,0.2,0.7c0,0.2,0,0.4,0.1,0.6c0,0.2,0.1,0.3,0.2,0.4
			c0.2,0.1,0.2,0.3,0.2,0.5s-0.1,0.3-0.2,0.5c-0.2,0.1-0.4,0.2-0.5,0.2c-0.2,0-0.4-0.1-0.5-0.2c-0.2-0.1-0.3-0.3-0.5-0.5
			s-0.2-0.7-0.2-1.2c0-0.3-0.1-0.5-0.2-0.7c-0.1-0.2-0.4-0.2-0.8-0.2H300l0.2-0.3V59c0,0.3-0.1,0.5-0.2,0.6
			C299.9,59.8,299.7,59.9,299.5,59.9z M301.5,55.8c0.3,0,0.5-0.1,0.7-0.2c0.2-0.2,0.3-0.4,0.3-0.6c0-0.2-0.1-0.4-0.3-0.6
			s-0.4-0.2-0.7-0.2H300l0.2-0.2v2l-0.1-0.2H301.5z"/>
	</g>
</g>
</svg>
